<?xml version="1.0" encoding="UTF-8" standalone="no"?>
<svg
   xmlns:dc="http://purl.org/dc/elements/1.1/"
   xmlns:cc="http://creativecommons.org/ns#"
   xmlns:rdf="http://www.w3.org/1999/02/22-rdf-syntax-ns#"
   xmlns:svg="http://www.w3.org/2000/svg"
   xmlns="http://www.w3.org/2000/svg"
   id="svg68"
   version="1.1"
   viewBox="0 0 771.12 217.44">
  <metadata
     id="metadata72">
    <rdf:RDF>
      <cc:Work
         rdf:about="">
        <dc:format>image/svg+xml</dc:format>
        <dc:type
           rdf:resource="http://purl.org/dc/dcmitype/StillImage" />
      </cc:Work>
    </rdf:RDF>
  </metadata>
  <defs
     id="defs4">
    <style
       id="style2">.cls-1{fill:none;}.cls-2,.cls-4{fill:#414042;}.cls-3{fill:#00ae42;}.cls-4{font-size:31px;font-family:FuturaStd-Book, Futura Std;letter-spacing:-0.01em;}</style>
  </defs>
  <title
     id="title6">wids-2color-1line</title>
  <g
     id="Logos">
    <path
       style="fill:none"
       id="path8"
       d="m 227,90.18 c -4.49,-1.28 -8.13,-0.15 -12,2.17 4.44,0.65 8.21,0.13 12,-2.17 z"
       class="cls-1" />
    <path
       style="fill:none"
       id="path10"
       d="m 227,90.18 c -4.49,-1.28 -8.13,-0.15 -12,2.17 4.44,0.65 8.21,0.13 12,-2.17 z"
       class="cls-1" />
    <path
       style="fill:none"
       id="path12"
       d="m 216,88.53 c -4.49,-1.27 -8.13,-0.15 -12,2.17 4.43,0.61 8.2,0.14 12,-2.17 z"
       class="cls-1" />
    <path
       style="fill:none"
       id="path14"
       d="m 210.44,82.74 -10.44,3.19 3.19,2 z"
       class="cls-1" />
    <path
       style="fill:none"
       id="path16"
       d="m 227,90.18 c -4.49,-1.28 -8.13,-0.15 -12,2.17 4.44,0.65 8.21,0.13 12,-2.17 z"
       class="cls-1" />
    <path
       style="fill:none"
       id="path18"
       d="m 201.37,89.76 c -0.78,-0.55 -1.5,-1.06 -2.2,-1.54 0.74,1.21 1.47,2.06 2.2,1.54 z"
       class="cls-1" />
    <path
       style="fill:none"
       id="path20"
       d="m 178.19,148.58 c 0,-0.07 -14.08,6.21 -20.72,9.22 4.39,1.7 20.42,-7.43 20.72,-9.22 z"
       class="cls-1" />
    <path
       style="fill:#414042"
       id="path22"
       d="m 65.28,137.5 c 0.22,-0.84 1.29,-3.22 1.37,-3.62 0.14,-0.75 -0.46,-2.9 -1,-3.27 -1.51,-1 -1.22,-2.25 -0.31,-3.22 a 7.94,7.94 0 0 1 0.67,-0.63 c 0.22,-0.19 0.25,-0.32 0,-0.51 a 4.52,4.52 0 0 1 -1.68,-2 1.24,1.24 0 0 1 0.06,-1.25 c 0.51,-0.68 1,-1.34 1.56,-2 a 1.91,1.91 0 0 0 0.41,-0.59 1,1 0 0 0 0,-0.72 6,6 0 0 0 -1.43,-1.69 c -0.67,-0.69 -2.38,-1.75 -2.38,-3.47 0,-2.76 11.42,-9.08 11.68,-11.15 0.82,-6.48 -3.38,-3.06 2.68,-16.63 3.44,-7.73 -1.38,-7.87 3.78,-14.4 4.29,-5.44 29,-18.21 58.22,-16 l 0.79,0.06 A 87,87 0 0 0 127.9,54.7 c -29.25,-2.2 -53.93,10.57 -58.22,16 -5.16,6.53 -0.34,6.67 -3.78,14.4 -6.06,13.57 -1.9,10.15 -2.68,16.63 -0.27,2.06 -11.68,8.39 -11.68,11.15 0,1.71 1.71,2.78 2.38,3.46 a 6.14,6.14 0 0 1 1.36,1.66 1.11,1.11 0 0 1 0,0.72 2.07,2.07 0 0 1 -0.41,0.6 c -0.52,0.67 -1,1.34 -1.56,2 a 1.2,1.2 0 0 0 -0.06,1.24 4.47,4.47 0 0 0 1.68,2 c 0.26,0.19 0.22,0.32 0,0.5 -0.22,0.18 -0.46,0.41 -0.67,0.63 -0.91,1 -1.2,2.23 0.31,3.22 0.57,0.37 1.16,2.52 1,3.27 -0.07,0.4 -1.14,2.78 -1.37,3.62 a 4.12,4.12 0 0 0 0.15,2.07 2.06,2.06 0 0 0 0.48,0.88 c 1.28,1.48 4.6,2.47 10.62,1.57 l 0.29,-0.05 a 2,2 0 0 1 -0.38,-0.75 4,4 0 0 1 -0.08,-2.02 z"
       class="cls-2" />
    <path
       style="fill:#414042"
       id="path24"
       d="M 87.14,143.19 C 85.2,141.35 80,141.51 76.61,142 a 266.09,266.09 0 0 1 21.83,23.34 h 9.65 A 243.76,243.76 0 0 0 87.14,143.19 Z"
       class="cls-2" />
    <path
       style="fill:#00ae42"
       id="path26"
       d="m 203.74,102.34 c 2.27,-2.22 4.55,-4.43 6.81,-6.66 a 2.61,2.61 0 0 1 2.58,-0.68 39.47,39.47 0 0 0 7.5,0.67 c 3.46,-0.09 6.32,-1.83 8.83,-4.2 2.8,2.18 3.07,4.89 3.25,8.64 1.31,-2.47 0.2,-8.27 -0.81,-9.91 a 2.38,2.38 0 0 1 -0.13,-2.38 7.73,7.73 0 0 0 -0.9,-7.59 c 0.26,2.31 0.37,4.59 -0.85,6.72 a 38.56,38.56 0 0 0 -4.07,-3.2 19.09,19.09 0 0 0 -4.84,-2.1 16.14,16.14 0 0 0 -5.09,-0.48 26.47,26.47 0 0 0 -4.47,1 71.1,71.1 0 0 0 6.22,-4.1 c 6.24,-5 9,-11.5 7.54,-19.5 a 9.42,9.42 0 0 0 -4.83,-6.77 c 2.53,2.65 2.55,5.61 1,8.66 a 22.42,22.42 0 0 1 -10.83,10.42 43.1,43.1 0 0 1 -23.43,3.5 9.49,9.49 0 0 1 -4.73,-2 84,84 0 0 0 -42.79,-16 l -0.79,-0.06 C 109.66,54.13 85,66.9 80.69,72.34 c -5.16,6.53 -0.34,6.67 -3.78,14.4 -6.06,13.57 -1.86,10.15 -2.68,16.63 -0.26,2.07 -11.68,8.39 -11.68,11.15 0,1.72 1.71,2.78 2.38,3.47 a 6,6 0 0 1 1.36,1.69 1,1 0 0 1 0,0.72 1.91,1.91 0 0 1 -0.41,0.59 c -0.52,0.68 -1,1.34 -1.56,2 a 1.24,1.24 0 0 0 -0.06,1.25 4.52,4.52 0 0 0 1.68,2 c 0.26,0.19 0.23,0.32 0,0.51 a 7.94,7.94 0 0 0 -0.67,0.63 c -0.91,1 -1.2,2.23 0.31,3.22 0.57,0.37 1.17,2.52 1,3.27 -0.08,0.4 -1.15,2.78 -1.37,3.62 a 4,4 0 0 0 0.14,2.07 2,2 0 0 0 0.38,0.75 0.64,0.64 0 0 0 0.1,0.13 c 1.28,1.47 4.6,2.46 10.62,1.56 h 0.09 c 3.34,-0.49 8.59,-0.65 10.53,1.19 a 243.76,243.76 0 0 1 21,22.15 h 43.52 l -28,-26.71 27.12,21.14 c 0,0 3.41,2.81 12.45,1.3 8,-1.33 14.4,-6 20.17,-11.53 0.44,-0.42 1.07,-1.08 1.51,-1 a 23.39,23.39 0 0 1 5.25,1.34 c 1.95,0.84 2.18,2.64 1.46,4.84 3.14,-3.36 2.4,-6 -2.81,-10.9 1.82,-1.3 3.37,-3 5.41,-3.77 a 6.57,6.57 0 0 1 5.78,0.62 3.85,3.85 0 0 0 -3.48,-3.31 8.14,8.14 0 0 0 -5.61,0.92 c -1.78,1.1 -3.43,2.4 -5.15,3.59 a 3,3 0 0 1 -1.37,0.69 c -2.34,0.11 -4.68,0.12 -7.51,0.18 2.75,-1.17 5.07,-2.26 7.47,-3.15 7.35,-2.74 14.87,-4.73 22.81,-3.92 a 18.67,18.67 0 0 1 5.78,1.76 c 1.95,0.9 2.54,2.85 2.52,4.89 0,1.77 -1.2,2.71 -2.84,3.2 a 4.41,4.41 0 0 0 4.75,-2.31 c 2.14,-3.61 0.56,-6.57 -2.06,-9.3 0.71,-0.17 1.23,-0.27 1.73,-0.42 4.09,-1.21 7.25,-3.52 8.77,-7.62 a 6.52,6.52 0 0 0 -1.6,-7.5 c 1.22,3.49 0.14,6.15 -3,7.66 -4,1.94 -11.57,0.68 -14.87,-2.56 5.28,-3.17 8.79,-7.93 12,-13 a 15.28,15.28 0 0 1 3.37,-3.63 c 1.92,-1.57 4.19,-2.32 6.6,-1.19 2.41,1.13 2.59,3.2 2.39,5.56 a 5.7,5.7 0 0 0 1,-4.64 10.44,10.44 0 0 0 -14.57,-7.71 33.11,33.11 0 0 0 -7.07,4.42 52.41,52.41 0 0 1 -16.26,8.68 9.91,9.91 0 0 1 -7.58,-0.36 61.06,61.06 0 0 0 6,-1.57 32.37,32.37 0 0 0 11.59,-7.69 z M 227,90.14 c -3.82,2.3 -7.59,2.77 -12,2.17 3.9,-2.31 7.54,-3.45 12,-2.17 z m -16.56,-7.44 -7.25,5.23 -3.19,-2 z m -9.07,7 c -0.73,0.52 -1.46,-0.33 -2.2,-1.54 0.7,0.5 1.42,1.01 2.2,1.56 z m -23.18,58.82 c -0.3,1.79 -16.33,10.92 -20.72,9.22 6.64,-2.99 20.73,-9.27 20.72,-9.2 z"
       class="cls-3" />
  </g>
  <g
     data-name="@Stanford"
     id="_Stanford">
    <path
       style="fill:#414042"
       id="path29"
       d="m 281.71,81.1 3,14.17 h 0.19 a 29.63,29.63 0 0 1 0.72,-4.38 l 2.52,-9.79 h 6.61 L 298,95.27 h 0.19 a 31.07,31.07 0 0 1 0.59,-4.19 l 2.4,-10 h 9 l -8.38,23.74 h -7.52 l -2.71,-12.91 h -0.28 a 23.33,23.33 0 0 1 -0.44,3.59 l -2.4,9.32 h -7.33 L 272.77,81.1 Z"
       class="cls-2" />
    <path
       style="fill:#414042"
       id="path31"
       d="m 337.44,93 c 0,7.62 -5.89,12.19 -13.13,12.19 -7.24,0 -13.13,-4.54 -13.13,-12.19 0,-7.46 5.92,-12.31 13.13,-12.31 7.21,0 13.13,4.88 13.13,12.31 z m -17.57,0.13 a 4.44,4.44 0 1 0 8.88,0 4.44,4.44 0 1 0 -8.88,0 z"
       class="cls-2" />
    <path
       style="fill:#414042"
       id="path33"
       d="m 343.35,81.1 h 8.88 l 3.28,12.47 h 0.22 a 25.73,25.73 0 0 1 0.6,-3.15 L 359,81.1 h 8.79 l 3.9,23.74 h -8.34 l -1.17,-13 H 362 a 19.26,19.26 0 0 1 -0.56,2.36 L 358,104.84 h -5 l -3.09,-10 a 16.15,16.15 0 0 1 -0.53,-3 h -0.29 c -0.06,0.94 -0.12,1.92 -0.22,2.86 l -1,10.14 h -8.35 z"
       class="cls-2" />
    <path
       style="fill:#414042"
       id="path35"
       d="m 374.46,81.1 h 16 v 6.49 h -7.27 v 2.26 h 6.64 V 96 h -6.64 v 2.33 h 7.52 v 6.48 h -16.25 z"
       class="cls-2" />
    <path
       style="fill:#414042"
       id="path37"
       d="m 394.11,81.1 h 8.28 l 7.74,13.16 h 0.25 a 36.21,36.21 0 0 1 -0.72,-6 V 81.1 h 8.25 v 23.74 h -8.25 l -7.59,-12.47 h -0.25 a 28.19,28.19 0 0 1 0.53,4.76 v 7.71 h -8.24 z"
       class="cls-2" />
    <path
       style="fill:#414042"
       id="path39"
       d="m 436.39,104.84 h -3 V 81.1 h 3 z"
       class="cls-2" />
    <path
       style="fill:#414042"
       id="path41"
       d="m 440.54,80 17.82,18.67 V 81.1 h 3 v 24.72 L 443.5,87.15 v 17.69 h -3 z"
       class="cls-2" />
    <path
       style="fill:#414042"
       id="path43"
       d="m 476.81,81.1 h 8.79 c 8,0 14.07,3.5 14.07,12.22 0,7.05 -5,11.52 -11.93,11.52 h -10.93 z m 8.63,16.63 H 486 c 2.86,0 5.06,-1.33 5.06,-4.44 0,-3.34 -1.92,-4.76 -5.06,-4.76 h -0.54 z"
       class="cls-2" />
    <path
       style="fill:#414042"
       id="path45"
       d="m 509.78,104.84 h -9.13 L 508.9,81.1 h 9.54 l 8.46,23.74 h -9.13 l -0.78,-3 h -6.52 z m 5.7,-8.59 -1,-4.19 c -0.25,-1 -0.41,-2 -0.57,-3.06 h -0.31 l -1.6,7.25 z"
       class="cls-2" />
    <path
       style="fill:#414042"
       id="path47"
       d="m 524.54,81.1 h 18.14 v 7.72 l -4.76,-0.23 v 16.25 H 529.3 V 88.59 l -4.76,0.23 z"
       class="cls-2" />
    <path
       style="fill:#414042"
       id="path49"
       d="m 549.42,104.84 h -9.14 l 8.25,-23.74 h 9.54 l 8.47,23.74 h -9.13 l -0.78,-3 h -6.52 z m 5.69,-8.59 -1,-4.19 c -0.25,-1 -0.41,-2 -0.57,-3.06 h -0.31 l -1.58,7.25 z"
       class="cls-2" />
    <path
       style="fill:#414042"
       id="path51"
       d="m 581.28,96.34 0.44,0.35 a 9.08,9.08 0 0 0 5.38,2.17 c 0.85,0 2.21,-0.35 2.21,-1.42 0,-1.07 -1.14,-1.16 -1.93,-1.32 l -1.73,-0.31 c -3.37,-0.6 -6.2,-2.59 -6.2,-6.3 0,-5.64 5.13,-8.79 10.3,-8.79 a 14.11,14.11 0 0 1 7.52,2.08 l -2.33,6.08 a 9,9 0 0 0 -5,-1.8 c -0.76,0 -1.86,0.29 -1.86,1.26 0,0.97 1.07,1 1.73,1.17 l 2,0.44 c 3.65,0.82 6.3,2.77 6.3,6.8 0,5.67 -5.17,8.47 -10.3,8.47 a 21.45,21.45 0 0 1 -9.13,-2.17 z"
       class="cls-2" />
    <path
       style="fill:#414042"
       id="path53"
       d="m 618.33,90.74 a 7.64,7.64 0 0 0 -5.07,-2.4 4.65,4.65 0 0 0 -4.69,4.66 4.75,4.75 0 0 0 4.82,4.63 6.88,6.88 0 0 0 4.94,-2.2 l -0.25,8.87 a 18.83,18.83 0 0 1 -6.14,1 11.9,11.9 0 0 1 -12.06,-12 12.35,12.35 0 0 1 12.41,-12.47 18,18 0 0 1 5.79,1 z"
       class="cls-2" />
    <path
       style="fill:#414042"
       id="path55"
       d="m 621.45,81.1 h 8.63 v 23.74 h -8.63 z"
       class="cls-2" />
    <path
       style="fill:#414042"
       id="path57"
       d="m 634,81.1 h 16 v 6.49 h -7.27 v 2.26 h 6.64 V 96 h -6.64 v 2.33 h 7.52 v 6.48 H 634 Z"
       class="cls-2" />
    <path
       style="fill:#414042"
       id="path59"
       d="m 653.59,81.1 h 8.29 l 7.74,13.16 h 0.25 a 36.21,36.21 0 0 1 -0.72,-6 V 81.1 h 8.25 v 23.74 h -8.25 l -7.59,-12.47 h -0.25 a 28.19,28.19 0 0 1 0.53,4.76 v 7.71 h -8.25 z"
       class="cls-2" />
    <path
       style="fill:#414042"
       id="path61"
       d="m 698.78,90.74 a 7.68,7.68 0 0 0 -5.07,-2.4 4.65,4.65 0 0 0 -4.71,4.66 4.75,4.75 0 0 0 4.82,4.63 6.9,6.9 0 0 0 4.95,-2.2 l -0.26,8.87 a 18.83,18.83 0 0 1 -6.14,1 11.9,11.9 0 0 1 -12.06,-12 12.35,12.35 0 0 1 12.41,-12.47 18,18 0 0 1 5.79,1 z"
       class="cls-2" />
    <path
       style="fill:#414042"
       id="path63"
       d="m 701.7,81.1 h 16 v 6.49 h -7.28 v 2.26 H 717 V 96 h -6.65 v 2.33 h 7.53 v 6.48 H 701.7 Z"
       class="cls-2" />
    <g
       id="text65"
       style="font-size:31px;font-family:FuturaStd-Book, 'Futura Std';letter-spacing:-0.01em;fill:#414042"
       transform="translate(274.37,144.06)"
       aria-label="SALT LAKE CITY">
      <path
         id="path74"
         style="font-size:31px;font-family:FuturaStd-Book, 'Futura Std';letter-spacing:-0.01em;fill:#414042"
         d="m 15.035,-20.15 c -1.24,-2.294 -3.441,-3.627 -6.045,-3.627 -3.472,0 -6.541,2.325 -6.541,5.952 0,3.348 2.356,4.743 5.084,5.983 l 1.426,0.62 c 2.17,0.992 4.309,1.922 4.309,4.65 0,2.635 -2.294,4.557 -4.805,4.557 -2.511,0 -4.34,-1.953 -4.681,-4.34 L 1.24,-5.642 c 0.744,3.627 3.534,6.045 7.285,6.045 4.061,0 7.347,-3.131 7.347,-7.223 0,-3.72 -2.573,-5.239 -5.611,-6.572 l -1.55,-0.682 c -1.581,-0.713 -3.658,-1.643 -3.658,-3.658 0,-2.139 1.798,-3.627 3.875,-3.627 1.984,0 3.1,0.93 4.03,2.542 z" />
      <path
         id="path76"
         style="font-size:31px;font-family:FuturaStd-Book, 'Futura Std';letter-spacing:-0.01em;fill:#414042"
         d="m 32.847407,-6.634 2.759,6.634 h 2.883 l -10.509,-24.49 -10.788,24.49 h 2.852 l 2.821,-6.634 z m -1.023,-2.418 h -7.905 l 3.999,-9.362 z" />
      <path
         id="path78"
         style="font-size:31px;font-family:FuturaStd-Book, 'Futura Std';letter-spacing:-0.01em;fill:#414042"
         d="m 43.332189,-23.374 h -2.604 V 0 h 9.052 v -2.418 h -6.448 z" />
      <path
         id="path80"
         style="font-size:31px;font-family:FuturaStd-Book, 'Futura Std';letter-spacing:-0.01em;fill:#414042"
         d="m 55.760765,-20.956 h 5.704 v -2.418 h -13.95 v 2.418 h 5.642 V 0 h 2.604 z" />
      <path
         id="path82"
         style="font-size:31px;font-family:FuturaStd-Book, 'Futura Std';letter-spacing:-0.01em;fill:#414042"
         d="m 75.702966,-23.374 h -2.604 V 0 h 9.052 v -2.418 h -6.448 z" />
      <path
         id="path84"
         style="font-size:31px;font-family:FuturaStd-Book, 'Futura Std';letter-spacing:-0.01em;fill:#414042"
         d="M 97.898968,-6.634 100.65797,0 h 2.883 L 93.031968,-24.49 82.243968,0 h 2.852 l 2.821,-6.634 z m -1.023,-2.418 h -7.905 l 3.999,-9.362 z" />
      <path
         id="path86"
         style="font-size:31px;font-family:FuturaStd-Book, 'Futura Std';letter-spacing:-0.01em;fill:#414042"
         d="m 108.38375,-13.361 v -10.013 h -2.604 V 0 h 2.604 v -10.075 l 0.651,-0.651 9.579,10.726 h 3.596 l -11.346,-12.493 10.974,-10.881 h -3.503 z" />
      <path
         id="path88"
         style="font-size:31px;font-family:FuturaStd-Book, 'Futura Std';letter-spacing:-0.01em;fill:#414042"
         d="m 124.42092,0 h 12.121 v -2.418 h -9.517 v -9.176 h 9.238 v -2.418 h -9.238 v -6.944 h 9.517 v -2.418 h -12.121 z" />
      <path
         id="path90"
         style="font-size:31px;font-family:FuturaStd-Book, 'Futura Std';letter-spacing:-0.01em;fill:#414042"
         d="m 167.72162,-21.483 c -2.077,-1.55 -4.371,-2.294 -6.975,-2.294 -6.696,0 -12.183,5.487 -12.183,12.183 0,6.634 5.58,11.997 12.183,11.997 2.48,0 4.96,-0.837 6.975,-2.294 v -3.224 c -1.86,1.86 -4.433,3.1 -7.068,3.1 -5.239,0 -9.486,-4.526 -9.486,-9.672 0,-5.146 4.216,-9.672 9.424,-9.672 2.697,0 5.27,1.178 7.13,3.1 z" />
      <path
         id="path92"
         style="font-size:31px;font-family:FuturaStd-Book, 'Futura Std';letter-spacing:-0.01em;fill:#414042"
         d="m 174.47332,-23.374 h -2.604 V 0 h 2.604 z" />
      <path
         id="path94"
         style="font-size:31px;font-family:FuturaStd-Book, 'Futura Std';letter-spacing:-0.01em;fill:#414042"
         d="m 185.08405,-20.956 h 5.704 v -2.418 h -13.95 v 2.418 h 5.642 V 0 h 2.604 z" />
      <path
         id="path96"
         style="font-size:31px;font-family:FuturaStd-Book, 'Futura Std';letter-spacing:-0.01em;fill:#414042"
         d="M 198.71484,-10.044 V 0 h 2.604 v -10.044 l 7.657,-13.33 h -3.007 l -5.952,10.416 -5.952,-10.416 h -3.007 z" />
    </g>
  </g>
</svg>
